%TF.GenerationSoftware,KiCad,Pcbnew,10.0.4*%
%TF.CreationDate,2026-07-11T13:21:52+01:00*%
%TF.ProjectId,onepad,6f6e6570-6164-42e6-9b69-6361645f7063,rev?*%
%TF.SameCoordinates,Original*%
%TF.FileFunction,Profile,NP*%
%FSLAX46Y46*%
G04 Gerber Fmt 4.6, Leading zero omitted, Abs format (unit mm)*
G04 Created by KiCad (PCBNEW 10.0.4) date 2026-07-11 13:21:52*
%MOMM*%
%LPD*%
G01*
G04 APERTURE LIST*
%TA.AperFunction,Profile*%
%ADD10C,0.050000*%
%TD*%
%TA.AperFunction,Profile*%
%ADD11C,0.120000*%
%TD*%
G04 APERTURE END LIST*
D10*
X96675000Y-108500000D02*
X133625000Y-108500000D01*
X133625000Y-131500000D01*
X96675000Y-131500000D01*
X96675000Y-108500000D01*
%TO.C,D1*%
D11*
X105400000Y-115575000D02*
X105400000Y-114874647D01*
X105400000Y-115575000D02*
X105400000Y-116275353D01*
X107100000Y-114075000D02*
X106199647Y-114075000D01*
X107100000Y-114075000D02*
X108000353Y-114075000D01*
X107100000Y-117075000D02*
X106199647Y-117075000D01*
X107100000Y-117075000D02*
X108000353Y-117075000D01*
X108800000Y-115575000D02*
X108800000Y-114874647D01*
X108800000Y-115575000D02*
X108800000Y-116275353D01*
X105356066Y-114718345D02*
G75*
G02*
X105400000Y-114874647I-256065J-156301D01*
G01*
X105356066Y-114718345D02*
G75*
G02*
X106043345Y-114031066I426776J260503D01*
G01*
X105400000Y-116275353D02*
G75*
G02*
X105356066Y-116431655I-299999J-1D01*
G01*
X106043345Y-117118934D02*
G75*
G02*
X105356066Y-116431655I-260503J426776D01*
G01*
X106043345Y-117118934D02*
G75*
G02*
X106199647Y-117075000I156301J-256065D01*
G01*
X106199647Y-114075000D02*
G75*
G02*
X106043345Y-114031066I-1J299999D01*
G01*
X108000353Y-117075000D02*
G75*
G02*
X108156654Y-117118935I-3J-300000D01*
G01*
X108156655Y-114031066D02*
G75*
G02*
X108000353Y-114075002I-156305J256066D01*
G01*
X108156655Y-114031066D02*
G75*
G02*
X108843934Y-114718345I260505J-426774D01*
G01*
X108800000Y-114874647D02*
G75*
G02*
X108843935Y-114718346I300000J-3D01*
G01*
X108843934Y-116431655D02*
G75*
G02*
X108156655Y-117118934I-426776J-260503D01*
G01*
X108843934Y-116431655D02*
G75*
G02*
X108800024Y-116275353I256066J156255D01*
G01*
%TD*%
M02*
