%TF.GenerationSoftware,KiCad,Pcbnew,10.0.4*%
%TF.CreationDate,2026-07-11T13:21:52+01:00*%
%TF.ProjectId,onepad,6f6e6570-6164-42e6-9b69-6361645f7063,rev?*%
%TF.SameCoordinates,Original*%
%TF.FileFunction,Legend,Top*%
%TF.FilePolarity,Positive*%
%FSLAX46Y46*%
G04 Gerber Fmt 4.6, Leading zero omitted, Abs format (unit mm)*
G04 Created by KiCad (PCBNEW 10.0.4) date 2026-07-11 13:21:52*
%MOMM*%
%LPD*%
G01*
G04 APERTURE LIST*
%ADD10C,0.150000*%
%ADD11C,0.120000*%
G04 APERTURE END LIST*
D10*
X126666667Y-124907200D02*
X126809524Y-124954819D01*
X126809524Y-124954819D02*
X127047619Y-124954819D01*
X127047619Y-124954819D02*
X127142857Y-124907200D01*
X127142857Y-124907200D02*
X127190476Y-124859580D01*
X127190476Y-124859580D02*
X127238095Y-124764342D01*
X127238095Y-124764342D02*
X127238095Y-124669104D01*
X127238095Y-124669104D02*
X127190476Y-124573866D01*
X127190476Y-124573866D02*
X127142857Y-124526247D01*
X127142857Y-124526247D02*
X127047619Y-124478628D01*
X127047619Y-124478628D02*
X126857143Y-124431009D01*
X126857143Y-124431009D02*
X126761905Y-124383390D01*
X126761905Y-124383390D02*
X126714286Y-124335771D01*
X126714286Y-124335771D02*
X126666667Y-124240533D01*
X126666667Y-124240533D02*
X126666667Y-124145295D01*
X126666667Y-124145295D02*
X126714286Y-124050057D01*
X126714286Y-124050057D02*
X126761905Y-124002438D01*
X126761905Y-124002438D02*
X126857143Y-123954819D01*
X126857143Y-123954819D02*
X127095238Y-123954819D01*
X127095238Y-123954819D02*
X127238095Y-124002438D01*
X127571429Y-123954819D02*
X127809524Y-124954819D01*
X127809524Y-124954819D02*
X128000000Y-124240533D01*
X128000000Y-124240533D02*
X128190476Y-124954819D01*
X128190476Y-124954819D02*
X128428572Y-123954819D01*
X128761905Y-124050057D02*
X128809524Y-124002438D01*
X128809524Y-124002438D02*
X128904762Y-123954819D01*
X128904762Y-123954819D02*
X129142857Y-123954819D01*
X129142857Y-123954819D02*
X129238095Y-124002438D01*
X129238095Y-124002438D02*
X129285714Y-124050057D01*
X129285714Y-124050057D02*
X129333333Y-124145295D01*
X129333333Y-124145295D02*
X129333333Y-124240533D01*
X129333333Y-124240533D02*
X129285714Y-124383390D01*
X129285714Y-124383390D02*
X128714286Y-124954819D01*
X128714286Y-124954819D02*
X129333333Y-124954819D01*
X123761905Y-129754819D02*
X123761905Y-128754819D01*
X123761905Y-128754819D02*
X124000000Y-128754819D01*
X124000000Y-128754819D02*
X124142857Y-128802438D01*
X124142857Y-128802438D02*
X124238095Y-128897676D01*
X124238095Y-128897676D02*
X124285714Y-128992914D01*
X124285714Y-128992914D02*
X124333333Y-129183390D01*
X124333333Y-129183390D02*
X124333333Y-129326247D01*
X124333333Y-129326247D02*
X124285714Y-129516723D01*
X124285714Y-129516723D02*
X124238095Y-129611961D01*
X124238095Y-129611961D02*
X124142857Y-129707200D01*
X124142857Y-129707200D02*
X124000000Y-129754819D01*
X124000000Y-129754819D02*
X123761905Y-129754819D01*
X125190476Y-128754819D02*
X125000000Y-128754819D01*
X125000000Y-128754819D02*
X124904762Y-128802438D01*
X124904762Y-128802438D02*
X124857143Y-128850057D01*
X124857143Y-128850057D02*
X124761905Y-128992914D01*
X124761905Y-128992914D02*
X124714286Y-129183390D01*
X124714286Y-129183390D02*
X124714286Y-129564342D01*
X124714286Y-129564342D02*
X124761905Y-129659580D01*
X124761905Y-129659580D02*
X124809524Y-129707200D01*
X124809524Y-129707200D02*
X124904762Y-129754819D01*
X124904762Y-129754819D02*
X125095238Y-129754819D01*
X125095238Y-129754819D02*
X125190476Y-129707200D01*
X125190476Y-129707200D02*
X125238095Y-129659580D01*
X125238095Y-129659580D02*
X125285714Y-129564342D01*
X125285714Y-129564342D02*
X125285714Y-129326247D01*
X125285714Y-129326247D02*
X125238095Y-129231009D01*
X125238095Y-129231009D02*
X125190476Y-129183390D01*
X125190476Y-129183390D02*
X125095238Y-129135771D01*
X125095238Y-129135771D02*
X124904762Y-129135771D01*
X124904762Y-129135771D02*
X124809524Y-129183390D01*
X124809524Y-129183390D02*
X124761905Y-129231009D01*
X124761905Y-129231009D02*
X124714286Y-129326247D01*
X121528571Y-128787295D02*
X121071428Y-128787295D01*
X121300000Y-128787295D02*
X121300000Y-127987295D01*
X121300000Y-127987295D02*
X121223809Y-128101580D01*
X121223809Y-128101580D02*
X121147619Y-128177771D01*
X121147619Y-128177771D02*
X121071428Y-128215866D01*
X129861905Y-111154819D02*
X129861905Y-110154819D01*
X129861905Y-110154819D02*
X130100000Y-110154819D01*
X130100000Y-110154819D02*
X130242857Y-110202438D01*
X130242857Y-110202438D02*
X130338095Y-110297676D01*
X130338095Y-110297676D02*
X130385714Y-110392914D01*
X130385714Y-110392914D02*
X130433333Y-110583390D01*
X130433333Y-110583390D02*
X130433333Y-110726247D01*
X130433333Y-110726247D02*
X130385714Y-110916723D01*
X130385714Y-110916723D02*
X130338095Y-111011961D01*
X130338095Y-111011961D02*
X130242857Y-111107200D01*
X130242857Y-111107200D02*
X130100000Y-111154819D01*
X130100000Y-111154819D02*
X129861905Y-111154819D01*
X131290476Y-110488152D02*
X131290476Y-111154819D01*
X131052381Y-110107200D02*
X130814286Y-110821485D01*
X130814286Y-110821485D02*
X131433333Y-110821485D01*
X127628571Y-110187295D02*
X127171428Y-110187295D01*
X127400000Y-110187295D02*
X127400000Y-109387295D01*
X127400000Y-109387295D02*
X127323809Y-109501580D01*
X127323809Y-109501580D02*
X127247619Y-109577771D01*
X127247619Y-109577771D02*
X127171428Y-109615866D01*
X118261905Y-111154819D02*
X118261905Y-110154819D01*
X118261905Y-110154819D02*
X118500000Y-110154819D01*
X118500000Y-110154819D02*
X118642857Y-110202438D01*
X118642857Y-110202438D02*
X118738095Y-110297676D01*
X118738095Y-110297676D02*
X118785714Y-110392914D01*
X118785714Y-110392914D02*
X118833333Y-110583390D01*
X118833333Y-110583390D02*
X118833333Y-110726247D01*
X118833333Y-110726247D02*
X118785714Y-110916723D01*
X118785714Y-110916723D02*
X118738095Y-111011961D01*
X118738095Y-111011961D02*
X118642857Y-111107200D01*
X118642857Y-111107200D02*
X118500000Y-111154819D01*
X118500000Y-111154819D02*
X118261905Y-111154819D01*
X119214286Y-110250057D02*
X119261905Y-110202438D01*
X119261905Y-110202438D02*
X119357143Y-110154819D01*
X119357143Y-110154819D02*
X119595238Y-110154819D01*
X119595238Y-110154819D02*
X119690476Y-110202438D01*
X119690476Y-110202438D02*
X119738095Y-110250057D01*
X119738095Y-110250057D02*
X119785714Y-110345295D01*
X119785714Y-110345295D02*
X119785714Y-110440533D01*
X119785714Y-110440533D02*
X119738095Y-110583390D01*
X119738095Y-110583390D02*
X119166667Y-111154819D01*
X119166667Y-111154819D02*
X119785714Y-111154819D01*
X116028571Y-110187295D02*
X115571428Y-110187295D01*
X115800000Y-110187295D02*
X115800000Y-109387295D01*
X115800000Y-109387295D02*
X115723809Y-109501580D01*
X115723809Y-109501580D02*
X115647619Y-109577771D01*
X115647619Y-109577771D02*
X115571428Y-109615866D01*
X101361905Y-115029819D02*
X101361905Y-114029819D01*
X101361905Y-114029819D02*
X101600000Y-114029819D01*
X101600000Y-114029819D02*
X101742857Y-114077438D01*
X101742857Y-114077438D02*
X101838095Y-114172676D01*
X101838095Y-114172676D02*
X101885714Y-114267914D01*
X101885714Y-114267914D02*
X101933333Y-114458390D01*
X101933333Y-114458390D02*
X101933333Y-114601247D01*
X101933333Y-114601247D02*
X101885714Y-114791723D01*
X101885714Y-114791723D02*
X101838095Y-114886961D01*
X101838095Y-114886961D02*
X101742857Y-114982200D01*
X101742857Y-114982200D02*
X101600000Y-115029819D01*
X101600000Y-115029819D02*
X101361905Y-115029819D01*
X102885714Y-115029819D02*
X102314286Y-115029819D01*
X102600000Y-115029819D02*
X102600000Y-114029819D01*
X102600000Y-114029819D02*
X102504762Y-114172676D01*
X102504762Y-114172676D02*
X102409524Y-114267914D01*
X102409524Y-114267914D02*
X102314286Y-114315533D01*
X110916667Y-122117200D02*
X111059524Y-122164819D01*
X111059524Y-122164819D02*
X111297619Y-122164819D01*
X111297619Y-122164819D02*
X111392857Y-122117200D01*
X111392857Y-122117200D02*
X111440476Y-122069580D01*
X111440476Y-122069580D02*
X111488095Y-121974342D01*
X111488095Y-121974342D02*
X111488095Y-121879104D01*
X111488095Y-121879104D02*
X111440476Y-121783866D01*
X111440476Y-121783866D02*
X111392857Y-121736247D01*
X111392857Y-121736247D02*
X111297619Y-121688628D01*
X111297619Y-121688628D02*
X111107143Y-121641009D01*
X111107143Y-121641009D02*
X111011905Y-121593390D01*
X111011905Y-121593390D02*
X110964286Y-121545771D01*
X110964286Y-121545771D02*
X110916667Y-121450533D01*
X110916667Y-121450533D02*
X110916667Y-121355295D01*
X110916667Y-121355295D02*
X110964286Y-121260057D01*
X110964286Y-121260057D02*
X111011905Y-121212438D01*
X111011905Y-121212438D02*
X111107143Y-121164819D01*
X111107143Y-121164819D02*
X111345238Y-121164819D01*
X111345238Y-121164819D02*
X111488095Y-121212438D01*
X111821429Y-121164819D02*
X112059524Y-122164819D01*
X112059524Y-122164819D02*
X112250000Y-121450533D01*
X112250000Y-121450533D02*
X112440476Y-122164819D01*
X112440476Y-122164819D02*
X112678572Y-121164819D01*
X113583333Y-122164819D02*
X113011905Y-122164819D01*
X113297619Y-122164819D02*
X113297619Y-121164819D01*
X113297619Y-121164819D02*
X113202381Y-121307676D01*
X113202381Y-121307676D02*
X113107143Y-121402914D01*
X113107143Y-121402914D02*
X113011905Y-121450533D01*
X129561905Y-129754819D02*
X129561905Y-128754819D01*
X129561905Y-128754819D02*
X129800000Y-128754819D01*
X129800000Y-128754819D02*
X129942857Y-128802438D01*
X129942857Y-128802438D02*
X130038095Y-128897676D01*
X130038095Y-128897676D02*
X130085714Y-128992914D01*
X130085714Y-128992914D02*
X130133333Y-129183390D01*
X130133333Y-129183390D02*
X130133333Y-129326247D01*
X130133333Y-129326247D02*
X130085714Y-129516723D01*
X130085714Y-129516723D02*
X130038095Y-129611961D01*
X130038095Y-129611961D02*
X129942857Y-129707200D01*
X129942857Y-129707200D02*
X129800000Y-129754819D01*
X129800000Y-129754819D02*
X129561905Y-129754819D01*
X130466667Y-128754819D02*
X131133333Y-128754819D01*
X131133333Y-128754819D02*
X130704762Y-129754819D01*
X127328571Y-128787295D02*
X126871428Y-128787295D01*
X127100000Y-128787295D02*
X127100000Y-127987295D01*
X127100000Y-127987295D02*
X127023809Y-128101580D01*
X127023809Y-128101580D02*
X126947619Y-128177771D01*
X126947619Y-128177771D02*
X126871428Y-128215866D01*
X117961905Y-129754819D02*
X117961905Y-128754819D01*
X117961905Y-128754819D02*
X118200000Y-128754819D01*
X118200000Y-128754819D02*
X118342857Y-128802438D01*
X118342857Y-128802438D02*
X118438095Y-128897676D01*
X118438095Y-128897676D02*
X118485714Y-128992914D01*
X118485714Y-128992914D02*
X118533333Y-129183390D01*
X118533333Y-129183390D02*
X118533333Y-129326247D01*
X118533333Y-129326247D02*
X118485714Y-129516723D01*
X118485714Y-129516723D02*
X118438095Y-129611961D01*
X118438095Y-129611961D02*
X118342857Y-129707200D01*
X118342857Y-129707200D02*
X118200000Y-129754819D01*
X118200000Y-129754819D02*
X117961905Y-129754819D01*
X119438095Y-128754819D02*
X118961905Y-128754819D01*
X118961905Y-128754819D02*
X118914286Y-129231009D01*
X118914286Y-129231009D02*
X118961905Y-129183390D01*
X118961905Y-129183390D02*
X119057143Y-129135771D01*
X119057143Y-129135771D02*
X119295238Y-129135771D01*
X119295238Y-129135771D02*
X119390476Y-129183390D01*
X119390476Y-129183390D02*
X119438095Y-129231009D01*
X119438095Y-129231009D02*
X119485714Y-129326247D01*
X119485714Y-129326247D02*
X119485714Y-129564342D01*
X119485714Y-129564342D02*
X119438095Y-129659580D01*
X119438095Y-129659580D02*
X119390476Y-129707200D01*
X119390476Y-129707200D02*
X119295238Y-129754819D01*
X119295238Y-129754819D02*
X119057143Y-129754819D01*
X119057143Y-129754819D02*
X118961905Y-129707200D01*
X118961905Y-129707200D02*
X118914286Y-129659580D01*
X115728571Y-128787295D02*
X115271428Y-128787295D01*
X115500000Y-128787295D02*
X115500000Y-127987295D01*
X115500000Y-127987295D02*
X115423809Y-128101580D01*
X115423809Y-128101580D02*
X115347619Y-128177771D01*
X115347619Y-128177771D02*
X115271428Y-128215866D01*
X124061905Y-111154819D02*
X124061905Y-110154819D01*
X124061905Y-110154819D02*
X124300000Y-110154819D01*
X124300000Y-110154819D02*
X124442857Y-110202438D01*
X124442857Y-110202438D02*
X124538095Y-110297676D01*
X124538095Y-110297676D02*
X124585714Y-110392914D01*
X124585714Y-110392914D02*
X124633333Y-110583390D01*
X124633333Y-110583390D02*
X124633333Y-110726247D01*
X124633333Y-110726247D02*
X124585714Y-110916723D01*
X124585714Y-110916723D02*
X124538095Y-111011961D01*
X124538095Y-111011961D02*
X124442857Y-111107200D01*
X124442857Y-111107200D02*
X124300000Y-111154819D01*
X124300000Y-111154819D02*
X124061905Y-111154819D01*
X124966667Y-110154819D02*
X125585714Y-110154819D01*
X125585714Y-110154819D02*
X125252381Y-110535771D01*
X125252381Y-110535771D02*
X125395238Y-110535771D01*
X125395238Y-110535771D02*
X125490476Y-110583390D01*
X125490476Y-110583390D02*
X125538095Y-110631009D01*
X125538095Y-110631009D02*
X125585714Y-110726247D01*
X125585714Y-110726247D02*
X125585714Y-110964342D01*
X125585714Y-110964342D02*
X125538095Y-111059580D01*
X125538095Y-111059580D02*
X125490476Y-111107200D01*
X125490476Y-111107200D02*
X125395238Y-111154819D01*
X125395238Y-111154819D02*
X125109524Y-111154819D01*
X125109524Y-111154819D02*
X125014286Y-111107200D01*
X125014286Y-111107200D02*
X124966667Y-111059580D01*
X121828571Y-110187295D02*
X121371428Y-110187295D01*
X121600000Y-110187295D02*
X121600000Y-109387295D01*
X121600000Y-109387295D02*
X121523809Y-109501580D01*
X121523809Y-109501580D02*
X121447619Y-109577771D01*
X121447619Y-109577771D02*
X121371428Y-109615866D01*
%TO.C,SW2*%
D11*
X117900000Y-114100000D02*
X122000000Y-114100000D01*
X117900000Y-116500000D02*
X117900000Y-114100000D01*
X117900000Y-121300000D02*
X117900000Y-118700000D01*
X117900000Y-125900000D02*
X117900000Y-123500000D01*
X122000000Y-125900000D02*
X117900000Y-125900000D01*
X124000000Y-120500000D02*
X124000000Y-119500000D01*
X124500000Y-120000000D02*
X123500000Y-120000000D01*
X126000000Y-114100000D02*
X130100000Y-114100000D01*
X126000000Y-125900000D02*
X130100000Y-125900000D01*
X130100000Y-125900000D02*
X130100000Y-114100000D01*
X131200000Y-124100000D02*
X131500000Y-123800000D01*
X131500000Y-123800000D02*
X131800000Y-124100000D01*
X131800000Y-124100000D02*
X131200000Y-124100000D01*
X127000000Y-120000000D02*
G75*
G02*
X121000000Y-120000000I-3000000J0D01*
G01*
X121000000Y-120000000D02*
G75*
G02*
X127000000Y-120000000I3000000J0D01*
G01*
%TO.C,D6*%
X121700000Y-127300000D02*
X121700000Y-131300000D01*
X121700000Y-127300000D02*
X127300000Y-127300000D01*
X121700000Y-131300000D02*
X126700000Y-131300000D01*
X127300000Y-130700000D02*
X126700000Y-131300000D01*
X127300000Y-130700000D02*
X127300000Y-127300000D01*
%TO.C,D4*%
X127800000Y-108700000D02*
X127800000Y-112700000D01*
X127800000Y-108700000D02*
X133400000Y-108700000D01*
X127800000Y-112700000D02*
X132800000Y-112700000D01*
X133400000Y-112100000D02*
X132800000Y-112700000D01*
X133400000Y-112100000D02*
X133400000Y-108700000D01*
%TO.C,D2*%
X116200000Y-108700000D02*
X116200000Y-112700000D01*
X116200000Y-108700000D02*
X121800000Y-108700000D01*
X116200000Y-112700000D02*
X121200000Y-112700000D01*
X121800000Y-112100000D02*
X121200000Y-112700000D01*
X121800000Y-112100000D02*
X121800000Y-108700000D01*
%TO.C,D1*%
X103450000Y-113700000D02*
X110750000Y-113700000D01*
X103450000Y-116725000D02*
X103450000Y-113700000D01*
X103450000Y-116725000D02*
X104175000Y-117450000D01*
X110750000Y-113700000D02*
X110750000Y-117450000D01*
X110750000Y-117450000D02*
X104175000Y-117450000D01*
X104375000Y-117025000D02*
X104525000Y-117225000D01*
X104225000Y-117225000D01*
X104375000Y-117025000D01*
G36*
X104525000Y-117225000D02*
G01*
X104225000Y-117225000D01*
X104375000Y-117025000D01*
X104525000Y-117225000D01*
G37*
%TO.C,SW1*%
D10*
X101914824Y-121060220D02*
X101914824Y-120820220D01*
X101914824Y-123910220D02*
X101914824Y-124710220D01*
X103914824Y-126710220D02*
X109814824Y-126710220D01*
X111314824Y-126710220D02*
X112864824Y-126710220D01*
X112364824Y-122660220D02*
X107800000Y-122660220D01*
X112864824Y-123630220D02*
X112864824Y-123160220D01*
X112864824Y-126710220D02*
X112864824Y-126480220D01*
X103914824Y-126710220D02*
G75*
G02*
X101914820Y-124710220I-4J2000000D01*
G01*
X107800000Y-122660220D02*
G75*
G02*
X105505678Y-120820220I-866J2349332D01*
G01*
X112364824Y-122660220D02*
G75*
G02*
X112864824Y-123160220I-1J-500001D01*
G01*
%TO.C,D7*%
D11*
X127500000Y-127300000D02*
X127500000Y-131300000D01*
X127500000Y-127300000D02*
X133100000Y-127300000D01*
X127500000Y-131300000D02*
X132500000Y-131300000D01*
X133100000Y-130700000D02*
X132500000Y-131300000D01*
X133100000Y-130700000D02*
X133100000Y-127300000D01*
%TO.C,D5*%
X115900000Y-127300000D02*
X115900000Y-131300000D01*
X115900000Y-127300000D02*
X121500000Y-127300000D01*
X115900000Y-131300000D02*
X120900000Y-131300000D01*
X121500000Y-130700000D02*
X120900000Y-131300000D01*
X121500000Y-130700000D02*
X121500000Y-127300000D01*
%TO.C,D3*%
X122000000Y-108700000D02*
X122000000Y-112700000D01*
X122000000Y-108700000D02*
X127600000Y-108700000D01*
X122000000Y-112700000D02*
X127000000Y-112700000D01*
X127600000Y-112100000D02*
X127000000Y-112700000D01*
X127600000Y-112100000D02*
X127600000Y-108700000D01*
%TD*%
M02*
