%TF.GenerationSoftware,KiCad,Pcbnew,10.0.4*%
%TF.CreationDate,2026-07-11T13:21:52+01:00*%
%TF.ProjectId,onepad,6f6e6570-6164-42e6-9b69-6361645f7063,rev?*%
%TF.SameCoordinates,Original*%
%TF.FileFunction,Soldermask,Top*%
%TF.FilePolarity,Negative*%
%FSLAX46Y46*%
G04 Gerber Fmt 4.6, Leading zero omitted, Abs format (unit mm)*
G04 Created by KiCad (PCBNEW 10.0.4) date 2026-07-11 13:21:52*
%MOMM*%
%LPD*%
G01*
G04 APERTURE LIST*
G04 Aperture macros list*
%AMRoundRect*
0 Rectangle with rounded corners*
0 $1 Rounding radius*
0 $2 $3 $4 $5 $6 $7 $8 $9 X,Y pos of 4 corners*
0 Add a 4 corners polygon primitive as box body*
4,1,4,$2,$3,$4,$5,$6,$7,$8,$9,$2,$3,0*
0 Add four circle primitives for the rounded corners*
1,1,$1+$1,$2,$3*
1,1,$1+$1,$4,$5*
1,1,$1+$1,$6,$7*
1,1,$1+$1,$8,$9*
0 Add four rect primitives between the rounded corners*
20,1,$1+$1,$2,$3,$4,$5,0*
20,1,$1+$1,$4,$5,$6,$7,0*
20,1,$1+$1,$6,$7,$8,$9,0*
20,1,$1+$1,$8,$9,$2,$3,0*%
G04 Aperture macros list end*
%ADD10R,2.000000X2.000000*%
%ADD11C,2.000000*%
%ADD12R,3.200000X2.000000*%
%ADD13R,1.600000X0.850000*%
%ADD14RoundRect,0.205000X-0.470000X-0.205000X0.470000X-0.205000X0.470000X0.205000X-0.470000X0.205000X0*%
%ADD15C,1.750000*%
%ADD16C,3.987800*%
%ADD17C,3.300000*%
%ADD18RoundRect,0.250000X1.025000X1.000000X-1.025000X1.000000X-1.025000X-1.000000X1.025000X-1.000000X0*%
%ADD19R,1.700000X3.500000*%
%ADD20O,1.700000X3.600000*%
%ADD21O,1.700000X3.700000*%
G04 APERTURE END LIST*
D10*
%TO.C,SW2*%
X131500000Y-122500000D03*
D11*
X131500000Y-117500000D03*
X131500000Y-120000000D03*
D12*
X124000000Y-125600000D03*
X124000000Y-114400000D03*
D11*
X117000000Y-117500000D03*
X117000000Y-122500000D03*
%TD*%
D13*
%TO.C,D6*%
X122750000Y-128425000D03*
X122750000Y-130175000D03*
X126250000Y-130175000D03*
X126250000Y-128425000D03*
%TD*%
%TO.C,D4*%
X128850000Y-109825000D03*
X128850000Y-111575000D03*
X132350000Y-111575000D03*
X132350000Y-109825000D03*
%TD*%
%TO.C,D2*%
X117250000Y-109825000D03*
X117250000Y-111575000D03*
X120750000Y-111575000D03*
X120750000Y-109825000D03*
%TD*%
D14*
%TO.C,D1*%
X104375000Y-116325000D03*
X104375000Y-114825000D03*
X109825000Y-114825000D03*
X109825000Y-116325000D03*
%TD*%
D15*
%TO.C,SW1*%
X113080000Y-119960000D03*
D16*
X108000000Y-119960000D03*
D15*
X102920000Y-119960000D03*
D17*
X104190000Y-122500000D03*
D18*
X100640000Y-122500000D03*
X114090000Y-125040000D03*
D17*
X110540000Y-125040000D03*
%TD*%
D13*
%TO.C,D7*%
X128550000Y-128425000D03*
X128550000Y-130175000D03*
X132050000Y-130175000D03*
X132050000Y-128425000D03*
%TD*%
%TO.C,D5*%
X116950000Y-128425000D03*
X116950000Y-130175000D03*
X120450000Y-130175000D03*
X120450000Y-128425000D03*
%TD*%
%TO.C,D3*%
X123050000Y-109825000D03*
X123050000Y-111575000D03*
X126550000Y-111575000D03*
X126550000Y-109825000D03*
%TD*%
D19*
%TO.C,U1*%
X99592015Y-111264500D03*
D20*
X102132015Y-111264500D03*
X104672015Y-111264500D03*
X107212015Y-111264500D03*
X109752015Y-111264500D03*
X112292015Y-111264500D03*
X114832015Y-111264500D03*
X114832015Y-128514500D03*
X112292015Y-128514500D03*
X109752015Y-128514500D03*
D21*
X107212015Y-128514500D03*
X104672015Y-128514500D03*
X102132015Y-128514500D03*
X99592015Y-128514500D03*
%TD*%
M02*
