%TF.GenerationSoftware,KiCad,Pcbnew,10.0.4*%
%TF.CreationDate,2026-07-11T13:21:52+01:00*%
%TF.ProjectId,onepad,6f6e6570-6164-42e6-9b69-6361645f7063,rev?*%
%TF.SameCoordinates,Original*%
%TF.FileFunction,Copper,L2,Bot*%
%TF.FilePolarity,Positive*%
%FSLAX46Y46*%
G04 Gerber Fmt 4.6, Leading zero omitted, Abs format (unit mm)*
G04 Created by KiCad (PCBNEW 10.0.4) date 2026-07-11 13:21:52*
%MOMM*%
%LPD*%
G01*
G04 APERTURE LIST*
%TA.AperFunction,ComponentPad*%
%ADD10R,2.000000X2.000000*%
%TD*%
%TA.AperFunction,ComponentPad*%
%ADD11C,2.000000*%
%TD*%
%TA.AperFunction,ComponentPad*%
%ADD12R,3.200000X2.000000*%
%TD*%
%TA.AperFunction,ComponentPad*%
%ADD13C,3.300000*%
%TD*%
%TA.AperFunction,ComponentPad*%
%ADD14R,1.700000X3.500000*%
%TD*%
%TA.AperFunction,ComponentPad*%
%ADD15O,1.700000X3.600000*%
%TD*%
%TA.AperFunction,ComponentPad*%
%ADD16O,1.700000X3.700000*%
%TD*%
%TA.AperFunction,ViaPad*%
%ADD17C,0.600000*%
%TD*%
%TA.AperFunction,Conductor*%
%ADD18C,0.200000*%
%TD*%
%TA.AperFunction,Conductor*%
%ADD19C,0.500000*%
%TD*%
G04 APERTURE END LIST*
D10*
%TO.P,SW2,A,A*%
%TO.N,RE_A*%
X131500000Y-122500000D03*
D11*
%TO.P,SW2,B,B*%
%TO.N,RE_B*%
X131500000Y-117500000D03*
%TO.P,SW2,C,C*%
%TO.N,GND*%
X131500000Y-120000000D03*
D12*
%TO.P,SW2,MP,MP*%
X124000000Y-125600000D03*
X124000000Y-114400000D03*
D11*
%TO.P,SW2,S1,S1*%
%TO.N,SW1*%
X117000000Y-117500000D03*
%TO.P,SW2,S2,S2*%
%TO.N,GND*%
X117000000Y-122500000D03*
%TD*%
D13*
%TO.P,SW1,1,1*%
%TO.N,SW1*%
X104190000Y-122500000D03*
%TO.P,SW1,2,2*%
%TO.N,GND*%
X110540000Y-125040000D03*
%TD*%
D14*
%TO.P,U1,1,PA02_A0_D0_1*%
%TO.N,unconnected-(U1-PA02_A0_D0-Pad1)*%
X99592015Y-111264500D03*
D15*
%TO.P,U1,2,PA4_A1_D1_2*%
%TO.N,D1_DIN*%
X102132015Y-111264500D03*
%TO.P,U1,3,PA10_A2_D2_3*%
%TO.N,RE_A*%
X104672015Y-111264500D03*
%TO.P,U1,4,PA11_A3_D3_4*%
%TO.N,RE_B*%
X107212015Y-111264500D03*
%TO.P,U1,5,PA8_A4_D4_SDA_5*%
%TO.N,unconnected-(U1-PA8_A4_D4_SDA-Pad5)*%
X109752015Y-111264500D03*
%TO.P,U1,6,PA9_A5_D5_SCL_6*%
%TO.N,unconnected-(U1-PA9_A5_D5_SCL-Pad6)*%
X112292015Y-111264500D03*
%TO.P,U1,7,PB08_A6_D6_TX_7*%
%TO.N,unconnected-(U1-PB08_A6_D6_TX-Pad7)*%
X114832015Y-111264500D03*
%TO.P,U1,8,PB09_A7_D7_RX_8*%
%TO.N,unconnected-(U1-PB09_A7_D7_RX-Pad8)*%
X114832015Y-128514500D03*
%TO.P,U1,9,PA7_A8_D8_SCK_9*%
%TO.N,unconnected-(U1-PA7_A8_D8_SCK-Pad9)*%
X112292015Y-128514500D03*
%TO.P,U1,10,PA5_A9_D9_MISO_10*%
%TO.N,unconnected-(U1-PA5_A9_D9_MISO-Pad10)*%
X109752015Y-128514500D03*
D16*
%TO.P,U1,11,PA6_A10_D10_MOSI_11*%
%TO.N,SW1*%
X107212015Y-128514500D03*
%TO.P,U1,12,3V3_12*%
%TO.N,+3V3*%
X104672015Y-128514500D03*
%TO.P,U1,13,GND_13*%
%TO.N,GND*%
X102132015Y-128514500D03*
%TO.P,U1,14,5V_14*%
%TO.N,unconnected-(U1-5V-Pad14)*%
X99592015Y-128514500D03*
%TD*%
D17*
%TO.N,GND*%
X97700000Y-127000000D03*
X119000000Y-119200000D03*
X111900000Y-121300000D03*
X105100000Y-118300000D03*
X97800000Y-130200000D03*
X120700000Y-112900000D03*
X97700000Y-116600000D03*
X101100000Y-119100000D03*
X104700000Y-125300000D03*
X115000000Y-119100000D03*
X101000000Y-115300000D03*
X122200000Y-118400000D03*
X97700000Y-113100000D03*
X126600000Y-118900000D03*
X129800000Y-130100000D03*
X97700000Y-119800000D03*
X97700000Y-109700000D03*
X118600000Y-130400000D03*
X118800000Y-114800000D03*
X127800000Y-116000000D03*
X127900000Y-113500000D03*
X107100000Y-123500000D03*
X97700000Y-123400000D03*
X123800000Y-130200000D03*
%TO.N,+3V3*%
X119300000Y-128400000D03*
X111100000Y-114900000D03*
X132200000Y-127800000D03*
X125300000Y-109800000D03*
X119600000Y-109800000D03*
X130150002Y-109800000D03*
%TO.N,Net-(D4-DOUT)*%
X130600000Y-130700000D03*
X131100000Y-110600000D03*
%TO.N,Net-(D1-DOUT)*%
X119500000Y-111600000D03*
X111000000Y-116300000D03*
%TO.N,D1_DIN*%
X103400000Y-114800000D03*
%TD*%
%TO.N,SW1*%
D18*
X108774775Y-122500000D02*
X113774775Y-117500000D01*
X113774775Y-117500000D02*
X117000000Y-117500000D01*
X104190000Y-122500000D02*
X108774775Y-122500000D01*
%TO.N,+3V3*%
D19*
X130150002Y-111949998D02*
X130150002Y-109800000D01*
X129500000Y-123800000D02*
X129500000Y-112600000D01*
X114500000Y-114900000D02*
X119600000Y-109800000D01*
X119600000Y-109800000D02*
X125300000Y-109800000D01*
X118900000Y-128400000D02*
X119300000Y-128400000D01*
X132200000Y-127800000D02*
X132200000Y-126500000D01*
X111100000Y-114900000D02*
X114500000Y-114900000D01*
X132200000Y-126500000D02*
X129500000Y-123800000D01*
X113300000Y-122800000D02*
X118900000Y-128400000D01*
X129500000Y-112600000D02*
X130150002Y-111949998D01*
X104685500Y-127514500D02*
X109400000Y-122800000D01*
X109400000Y-122800000D02*
X113300000Y-122800000D01*
X104672015Y-127514500D02*
X104685500Y-127514500D01*
X125300000Y-109800000D02*
X130150002Y-109800000D01*
%TO.N,Net-(D4-DOUT)*%
D18*
X133025000Y-112525000D02*
X131100000Y-110600000D01*
X133025000Y-128275000D02*
X133025000Y-112525000D01*
X130600000Y-130700000D02*
X133025000Y-128275000D01*
%TO.N,Net-(D1-DOUT)*%
X114800000Y-116300000D02*
X119500000Y-111600000D01*
X111000000Y-116300000D02*
X114800000Y-116300000D01*
%TO.N,D1_DIN*%
X102132015Y-112264500D02*
X102132015Y-113532015D01*
X102132015Y-113532015D02*
X103400000Y-114800000D01*
%TD*%
%TA.AperFunction,Conductor*%
%TO.N,GND*%
G36*
X98320907Y-109020185D02*
G01*
X98366662Y-109072989D01*
X98376606Y-109142147D01*
X98353135Y-109198810D01*
X98345206Y-109209401D01*
X98298218Y-109272169D01*
X98298217Y-109272171D01*
X98247923Y-109407017D01*
X98241516Y-109466616D01*
X98241515Y-109466635D01*
X98241515Y-113062370D01*
X98241516Y-113062376D01*
X98247923Y-113121983D01*
X98298217Y-113256828D01*
X98298221Y-113256835D01*
X98384467Y-113372044D01*
X98384470Y-113372047D01*
X98499679Y-113458293D01*
X98499686Y-113458297D01*
X98634532Y-113508591D01*
X98634531Y-113508591D01*
X98641459Y-113509335D01*
X98694142Y-113515000D01*
X100489887Y-113514999D01*
X100549498Y-113508591D01*
X100684346Y-113458296D01*
X100799561Y-113372046D01*
X100885811Y-113256831D01*
X100889087Y-113248049D01*
X100921242Y-113161835D01*
X100963112Y-113105901D01*
X101028576Y-113081483D01*
X101096849Y-113096334D01*
X101125105Y-113117486D01*
X101252228Y-113244609D01*
X101424194Y-113369548D01*
X101424196Y-113369549D01*
X101424199Y-113369551D01*
X101463809Y-113389733D01*
X101514605Y-113437707D01*
X101531514Y-113500218D01*
X101531514Y-113611071D01*
X101572436Y-113763796D01*
X101572437Y-113763798D01*
X101572438Y-113763800D01*
X101574682Y-113767686D01*
X101574685Y-113767692D01*
X101574687Y-113767695D01*
X101651492Y-113900727D01*
X101651496Y-113900732D01*
X101770364Y-114019600D01*
X101770370Y-114019605D01*
X102565425Y-114814660D01*
X102598910Y-114875983D01*
X102599361Y-114878149D01*
X102630261Y-115033491D01*
X102630264Y-115033501D01*
X102690602Y-115179172D01*
X102690609Y-115179185D01*
X102778210Y-115310288D01*
X102778213Y-115310292D01*
X102889707Y-115421786D01*
X102889711Y-115421789D01*
X103020814Y-115509390D01*
X103020827Y-115509397D01*
X103166498Y-115569735D01*
X103166503Y-115569737D01*
X103271418Y-115590606D01*
X103321153Y-115600499D01*
X103321156Y-115600500D01*
X103321158Y-115600500D01*
X103478844Y-115600500D01*
X103478845Y-115600499D01*
X103633497Y-115569737D01*
X103779179Y-115509394D01*
X103910289Y-115421789D01*
X104021789Y-115310289D01*
X104109394Y-115179179D01*
X104169737Y-115033497D01*
X104200500Y-114878842D01*
X104200500Y-114721158D01*
X104200500Y-114721155D01*
X104200499Y-114721153D01*
X104171542Y-114575578D01*
X104169737Y-114566503D01*
X104150529Y-114520130D01*
X104109397Y-114420827D01*
X104109390Y-114420814D01*
X104021789Y-114289711D01*
X104021786Y-114289707D01*
X103910292Y-114178213D01*
X103910288Y-114178210D01*
X103779185Y-114090609D01*
X103779172Y-114090602D01*
X103633501Y-114030264D01*
X103633491Y-114030261D01*
X103478151Y-113999362D01*
X103416241Y-113966977D01*
X103414662Y-113965426D01*
X102930304Y-113481068D01*
X102896819Y-113419745D01*
X102901803Y-113350053D01*
X102943675Y-113294120D01*
X102945064Y-113293094D01*
X103011807Y-113244604D01*
X103162119Y-113094292D01*
X103162121Y-113094288D01*
X103162124Y-113094286D01*
X103287063Y-112922320D01*
X103287062Y-112922320D01*
X103287066Y-112922316D01*
X103291529Y-112913554D01*
X103339503Y-112862759D01*
X103407323Y-112845963D01*
X103473459Y-112868499D01*
X103512501Y-112913556D01*
X103516966Y-112922320D01*
X103641905Y-113094286D01*
X103792228Y-113244609D01*
X103964194Y-113369548D01*
X103964196Y-113369549D01*
X103964199Y-113369551D01*
X104153603Y-113466057D01*
X104355772Y-113531746D01*
X104565728Y-113565000D01*
X104565729Y-113565000D01*
X104778301Y-113565000D01*
X104778302Y-113565000D01*
X104974632Y-113533904D01*
X105043925Y-113542859D01*
X105097377Y-113587855D01*
X105118017Y-113654606D01*
X105099292Y-113721920D01*
X105081712Y-113744058D01*
X105007796Y-113817974D01*
X104900663Y-113976295D01*
X104825444Y-114152037D01*
X104784862Y-114338833D01*
X104780381Y-114529947D01*
X104812167Y-114718452D01*
X104812168Y-114718455D01*
X104879065Y-114897516D01*
X104879065Y-114897517D01*
X104879066Y-114897520D01*
X104879068Y-114897523D01*
X104881343Y-114901251D01*
X104899500Y-114965850D01*
X104899500Y-116184148D01*
X104881347Y-116248742D01*
X104879069Y-116252474D01*
X104879065Y-116252481D01*
X104812168Y-116431544D01*
X104812167Y-116431547D01*
X104780381Y-116620052D01*
X104784862Y-116811166D01*
X104825444Y-116997962D01*
X104825445Y-116997966D01*
X104825446Y-116997967D01*
X104900665Y-117173708D01*
X105007799Y-117332029D01*
X105142971Y-117467201D01*
X105301292Y-117574335D01*
X105477033Y-117649554D01*
X105477036Y-117649554D01*
X105477037Y-117649555D01*
X105538155Y-117662833D01*
X105663838Y-117690138D01*
X105854948Y-117694619D01*
X106043449Y-117662833D01*
X106043452Y-117662832D01*
X106043455Y-117662831D01*
X106222513Y-117595936D01*
X106222515Y-117595934D01*
X106222523Y-117595932D01*
X106226249Y-117593657D01*
X106290851Y-117575500D01*
X107034108Y-117575500D01*
X107285506Y-117575500D01*
X107352545Y-117595185D01*
X107398300Y-117647989D01*
X107408244Y-117717147D01*
X107379219Y-117780703D01*
X107320441Y-117818477D01*
X107317623Y-117819268D01*
X107290146Y-117826630D01*
X107277005Y-117830152D01*
X107005205Y-117942734D01*
X107005189Y-117942742D01*
X106750410Y-118089840D01*
X106750394Y-118089851D01*
X106516990Y-118268948D01*
X106516983Y-118268954D01*
X106308954Y-118476983D01*
X106308948Y-118476990D01*
X106129851Y-118710394D01*
X106129840Y-118710410D01*
X105982742Y-118965189D01*
X105982734Y-118965205D01*
X105870152Y-119237005D01*
X105794001Y-119521203D01*
X105755601Y-119812883D01*
X105755600Y-119812900D01*
X105755600Y-120107099D01*
X105755601Y-120107116D01*
X105793111Y-120392039D01*
X105794002Y-120398800D01*
X105839107Y-120567135D01*
X105870152Y-120682994D01*
X105953955Y-120885314D01*
X105961424Y-120954783D01*
X105930149Y-121017262D01*
X105870060Y-121052914D01*
X105800234Y-121050420D01*
X105751713Y-121020447D01*
X105610970Y-120879704D01*
X105610965Y-120879700D01*
X105387317Y-120708088D01*
X105387311Y-120708084D01*
X105387309Y-120708083D01*
X105143190Y-120567140D01*
X105143179Y-120567135D01*
X104882743Y-120459259D01*
X104610439Y-120386295D01*
X104330958Y-120349500D01*
X104330951Y-120349500D01*
X104143023Y-120349500D01*
X104075984Y-120329815D01*
X104030229Y-120277011D01*
X104020285Y-120207853D01*
X104020550Y-120206102D01*
X104022627Y-120192993D01*
X104045500Y-120048579D01*
X104045500Y-119871421D01*
X104017786Y-119696445D01*
X103963042Y-119527958D01*
X103963042Y-119527957D01*
X103882613Y-119370109D01*
X103778483Y-119226786D01*
X103653214Y-119101517D01*
X103509890Y-118997386D01*
X103446732Y-118965205D01*
X103352042Y-118916957D01*
X103352039Y-118916956D01*
X103183556Y-118862214D01*
X103096067Y-118848357D01*
X103008579Y-118834500D01*
X102831421Y-118834500D01*
X102773095Y-118843738D01*
X102656443Y-118862214D01*
X102487960Y-118916956D01*
X102487957Y-118916957D01*
X102330109Y-118997386D01*
X102253988Y-119052692D01*
X102186786Y-119101517D01*
X102186784Y-119101519D01*
X102186783Y-119101519D01*
X102061519Y-119226783D01*
X102061519Y-119226784D01*
X102061517Y-119226786D01*
X102054087Y-119237013D01*
X101957386Y-119370109D01*
X101876957Y-119527957D01*
X101876956Y-119527960D01*
X101822214Y-119696443D01*
X101794500Y-119871421D01*
X101794500Y-120048578D01*
X101822214Y-120223556D01*
X101876956Y-120392039D01*
X101876957Y-120392042D01*
X101957386Y-120549890D01*
X102061517Y-120693214D01*
X102186786Y-120818483D01*
X102330110Y-120922614D01*
X102455801Y-120986657D01*
X102506597Y-121034632D01*
X102523392Y-121102453D01*
X102500854Y-121168588D01*
X102497882Y-121172628D01*
X102398094Y-121302674D01*
X102398083Y-121302690D01*
X102257140Y-121546809D01*
X102257135Y-121546820D01*
X102149259Y-121807256D01*
X102076295Y-122079560D01*
X102039500Y-122359041D01*
X102039500Y-122640958D01*
X102076295Y-122920439D01*
X102149259Y-123192743D01*
X102257135Y-123453179D01*
X102257140Y-123453190D01*
X102351354Y-123616372D01*
X102398088Y-123697317D01*
X102533601Y-123873920D01*
X102569704Y-123920970D01*
X102769029Y-124120295D01*
X102769033Y-124120298D01*
X102769035Y-124120300D01*
X102992683Y-124291912D01*
X102992690Y-124291916D01*
X103236809Y-124432859D01*
X103236814Y-124432861D01*
X103236817Y-124432863D01*
X103497261Y-124540742D01*
X103769558Y-124613704D01*
X104049049Y-124650500D01*
X104049056Y-124650500D01*
X104330944Y-124650500D01*
X104330951Y-124650500D01*
X104610442Y-124613704D01*
X104882739Y-124540742D01*
X105143183Y-124432863D01*
X105387317Y-124291912D01*
X105610965Y-124120300D01*
X105810300Y-123920965D01*
X105981912Y-123697317D01*
X106122863Y-123453183D01*
X106230742Y-123192739D01*
X106230834Y-123192396D01*
X106230888Y-123192307D01*
X106232043Y-123188904D01*
X106232295Y-123188989D01*
X106232296Y-123188988D01*
X106232320Y-123188998D01*
X106232805Y-123189162D01*
X106267204Y-123132738D01*
X106330054Y-123102215D01*
X106350606Y-123100500D01*
X107738770Y-123100500D01*
X107805809Y-123120185D01*
X107851564Y-123172989D01*
X107861508Y-123242147D01*
X107832483Y-123305703D01*
X107826451Y-123312181D01*
X104992462Y-126146168D01*
X104931139Y-126179653D01*
X104885383Y-126180960D01*
X104788233Y-126165573D01*
X104778302Y-126164000D01*
X104565728Y-126164000D01*
X104555797Y-126165573D01*
X104355775Y-126197253D01*
X104153600Y-126262944D01*
X103964194Y-126359451D01*
X103792228Y-126484390D01*
X103641905Y-126634713D01*
X103516964Y-126806682D01*
X103512217Y-126815999D01*
X103464242Y-126866793D01*
X103396420Y-126883587D01*
X103330286Y-126861048D01*
X103291249Y-126815995D01*
X103286637Y-126806944D01*
X103161742Y-126635040D01*
X103161738Y-126635035D01*
X103011479Y-126484776D01*
X103011474Y-126484772D01*
X102839572Y-126359879D01*
X102650230Y-126263403D01*
X102448139Y-126197741D01*
X102382015Y-126187268D01*
X102382015Y-127081488D01*
X102325008Y-127048575D01*
X102197841Y-127014500D01*
X102066189Y-127014500D01*
X101939022Y-127048575D01*
X101882015Y-127081488D01*
X101882015Y-126187268D01*
X101882014Y-126187268D01*
X101815890Y-126197741D01*
X101613799Y-126263403D01*
X101424457Y-126359879D01*
X101252555Y-126484772D01*
X101252550Y-126484776D01*
X101102291Y-126635035D01*
X101102287Y-126635040D01*
X100977393Y-126806943D01*
X100972777Y-126816002D01*
X100924799Y-126866795D01*
X100856978Y-126883587D01*
X100790844Y-126861046D01*
X100751809Y-126815993D01*
X100747066Y-126806684D01*
X100747064Y-126806681D01*
X100747063Y-126806679D01*
X100622124Y-126634713D01*
X100471801Y-126484390D01*
X100299835Y-126359451D01*
X100110429Y-126262944D01*
X100110428Y-126262943D01*
X100110427Y-126262943D01*
X99908258Y-126197254D01*
X99908256Y-126197253D01*
X99908255Y-126197253D01*
X99708233Y-126165573D01*
X99698302Y-126164000D01*
X99485728Y-126164000D01*
X99475797Y-126165573D01*
X99275775Y-126197253D01*
X99073600Y-126262944D01*
X98884194Y-126359451D01*
X98712228Y-126484390D01*
X98561905Y-126634713D01*
X98436966Y-126806679D01*
X98340459Y-126996085D01*
X98274768Y-127198260D01*
X98241515Y-127408213D01*
X98241515Y-129620786D01*
X98266849Y-129780743D01*
X98274769Y-129830743D01*
X98307105Y-129930264D01*
X98340459Y-130032914D01*
X98436966Y-130222320D01*
X98561905Y-130394286D01*
X98712228Y-130544609D01*
X98884194Y-130669548D01*
X98884196Y-130669549D01*
X98884199Y-130669551D01*
X98975830Y-130716239D01*
X99071558Y-130765015D01*
X99122354Y-130812990D01*
X99139149Y-130880811D01*
X99116612Y-130946945D01*
X99061897Y-130990397D01*
X99015263Y-130999500D01*
X97299500Y-130999500D01*
X97232461Y-130979815D01*
X97186706Y-130927011D01*
X97175500Y-130875500D01*
X97175500Y-109124500D01*
X97195185Y-109057461D01*
X97247989Y-109011706D01*
X97299500Y-109000500D01*
X98253868Y-109000500D01*
X98320907Y-109020185D01*
G37*
%TD.AperFunction*%
%TA.AperFunction,Conductor*%
G36*
X125042844Y-110559937D02*
G01*
X125066503Y-110569737D01*
X125066508Y-110569738D01*
X125066511Y-110569739D01*
X125221153Y-110600499D01*
X125221156Y-110600500D01*
X125221158Y-110600500D01*
X125378844Y-110600500D01*
X125378845Y-110600499D01*
X125455152Y-110585320D01*
X125533488Y-110569739D01*
X125533489Y-110569738D01*
X125533497Y-110569737D01*
X125557155Y-110559937D01*
X125604604Y-110550500D01*
X129275502Y-110550500D01*
X129342541Y-110570185D01*
X129388296Y-110622989D01*
X129399502Y-110674500D01*
X129399502Y-111587768D01*
X129379817Y-111654807D01*
X129363183Y-111675449D01*
X128917047Y-112121584D01*
X128917045Y-112121586D01*
X128894444Y-112155414D01*
X128885426Y-112168911D01*
X128860084Y-112206837D01*
X128834914Y-112244507D01*
X128778343Y-112381082D01*
X128778340Y-112381092D01*
X128749500Y-112526079D01*
X128749500Y-112526082D01*
X128749500Y-123873918D01*
X128749500Y-123873920D01*
X128749499Y-123873920D01*
X128778340Y-124018907D01*
X128778343Y-124018917D01*
X128834913Y-124155490D01*
X128834918Y-124155499D01*
X128842553Y-124166925D01*
X128842555Y-124166927D01*
X128872791Y-124212180D01*
X128917051Y-124278420D01*
X128917052Y-124278421D01*
X131413181Y-126774548D01*
X131446666Y-126835871D01*
X131449500Y-126862229D01*
X131449500Y-127495396D01*
X131440062Y-127542844D01*
X131431534Y-127563435D01*
X131430262Y-127566506D01*
X131430260Y-127566511D01*
X131399500Y-127721153D01*
X131399500Y-127878846D01*
X131430261Y-128033489D01*
X131430264Y-128033501D01*
X131490602Y-128179172D01*
X131490609Y-128179185D01*
X131578210Y-128310288D01*
X131578213Y-128310292D01*
X131689707Y-128421786D01*
X131689711Y-128421789D01*
X131767454Y-128473736D01*
X131812259Y-128527348D01*
X131820966Y-128596673D01*
X131790811Y-128659701D01*
X131786244Y-128664519D01*
X130585339Y-129865425D01*
X130524016Y-129898910D01*
X130521850Y-129899361D01*
X130366508Y-129930261D01*
X130366498Y-129930264D01*
X130220827Y-129990602D01*
X130220814Y-129990609D01*
X130089711Y-130078210D01*
X130089707Y-130078213D01*
X129978213Y-130189707D01*
X129978210Y-130189711D01*
X129890609Y-130320814D01*
X129890602Y-130320827D01*
X129830264Y-130466498D01*
X129830261Y-130466510D01*
X129799500Y-130621153D01*
X129799500Y-130778846D01*
X129813914Y-130851309D01*
X129807687Y-130920900D01*
X129764824Y-130976078D01*
X129698934Y-130999322D01*
X129692297Y-130999500D01*
X115260984Y-130999500D01*
X115193945Y-130979815D01*
X115148190Y-130927011D01*
X115138246Y-130857853D01*
X115167271Y-130794297D01*
X115222665Y-130757569D01*
X115350427Y-130716057D01*
X115539831Y-130619551D01*
X115642981Y-130544609D01*
X115711801Y-130494609D01*
X115711803Y-130494606D01*
X115711807Y-130494604D01*
X115862119Y-130344292D01*
X115862121Y-130344288D01*
X115862124Y-130344286D01*
X115987063Y-130172320D01*
X115987062Y-130172320D01*
X115987066Y-130172316D01*
X116083572Y-129982912D01*
X116149261Y-129780743D01*
X116182515Y-129570787D01*
X116182515Y-127458213D01*
X116149261Y-127248257D01*
X116083572Y-127046088D01*
X116022273Y-126925782D01*
X116009378Y-126857116D01*
X116035654Y-126792376D01*
X116092760Y-126752118D01*
X116162566Y-126749126D01*
X116220440Y-126781809D01*
X118421578Y-128982947D01*
X118421585Y-128982953D01*
X118479704Y-129021786D01*
X118479706Y-129021787D01*
X118479709Y-129021789D01*
X118544505Y-129065084D01*
X118681087Y-129121658D01*
X118681091Y-129121658D01*
X118681092Y-129121659D01*
X118826079Y-129150500D01*
X118826082Y-129150500D01*
X118826083Y-129150500D01*
X118973917Y-129150500D01*
X118995396Y-129150500D01*
X119042844Y-129159937D01*
X119066503Y-129169737D01*
X119066508Y-129169738D01*
X119066511Y-129169739D01*
X119221153Y-129200499D01*
X119221156Y-129200500D01*
X119221158Y-129200500D01*
X119378844Y-129200500D01*
X119378845Y-129200499D01*
X119533497Y-129169737D01*
X119679179Y-129109394D01*
X119810289Y-129021789D01*
X119921789Y-128910289D01*
X120009394Y-128779179D01*
X120069737Y-128633497D01*
X120100500Y-128478842D01*
X120100500Y-128321158D01*
X120100500Y-128321155D01*
X120100499Y-128321153D01*
X120098338Y-128310288D01*
X120069737Y-128166503D01*
X120069735Y-128166498D01*
X120009397Y-128020827D01*
X120009390Y-128020814D01*
X119921789Y-127889711D01*
X119921786Y-127889707D01*
X119810292Y-127778213D01*
X119810288Y-127778210D01*
X119679185Y-127690609D01*
X119679172Y-127690602D01*
X119533501Y-127630264D01*
X119533489Y-127630261D01*
X119378845Y-127599500D01*
X119378842Y-127599500D01*
X119221158Y-127599500D01*
X119215067Y-127599500D01*
X119215067Y-127597345D01*
X119155975Y-127586129D01*
X119124803Y-127563435D01*
X117447688Y-125886319D01*
X116113524Y-124552155D01*
X121900000Y-124552155D01*
X121900000Y-125350000D01*
X122641759Y-125350000D01*
X122628822Y-125381233D01*
X122600000Y-125526131D01*
X122600000Y-125673869D01*
X122628822Y-125818767D01*
X122641759Y-125850000D01*
X121900000Y-125850000D01*
X121900000Y-126647844D01*
X121906401Y-126707372D01*
X121906403Y-126707379D01*
X121956645Y-126842086D01*
X121956649Y-126842093D01*
X122042809Y-126957187D01*
X122042812Y-126957190D01*
X122157906Y-127043350D01*
X122157913Y-127043354D01*
X122292620Y-127093596D01*
X122292627Y-127093598D01*
X122352155Y-127099999D01*
X122352172Y-127100000D01*
X123750000Y-127100000D01*
X123750000Y-126350000D01*
X124250000Y-126350000D01*
X124250000Y-127100000D01*
X125647828Y-127100000D01*
X125647844Y-127099999D01*
X125707372Y-127093598D01*
X125707379Y-127093596D01*
X125842086Y-127043354D01*
X125842093Y-127043350D01*
X125957187Y-126957190D01*
X125957190Y-126957187D01*
X126043350Y-126842093D01*
X126043354Y-126842086D01*
X126093596Y-126707379D01*
X126093598Y-126707372D01*
X126099999Y-126647844D01*
X126100000Y-126647827D01*
X126100000Y-125850000D01*
X125358241Y-125850000D01*
X125371178Y-125818767D01*
X125400000Y-125673869D01*
X125400000Y-125526131D01*
X125371178Y-125381233D01*
X125358241Y-125350000D01*
X126100000Y-125350000D01*
X126100000Y-124552172D01*
X126099999Y-124552155D01*
X126093598Y-124492627D01*
X126093596Y-124492620D01*
X126043354Y-124357913D01*
X126043350Y-124357906D01*
X125957190Y-124242812D01*
X125957187Y-124242809D01*
X125842093Y-124156649D01*
X125842086Y-124156645D01*
X125707379Y-124106403D01*
X125707372Y-124106401D01*
X125647844Y-124100000D01*
X124250000Y-124100000D01*
X124250000Y-124850000D01*
X123750000Y-124850000D01*
X123750000Y-124100000D01*
X122352155Y-124100000D01*
X122292627Y-124106401D01*
X122292620Y-124106403D01*
X122157913Y-124156645D01*
X122157906Y-124156649D01*
X122042812Y-124242809D01*
X122042809Y-124242812D01*
X121956649Y-124357906D01*
X121956645Y-124357913D01*
X121906403Y-124492620D01*
X121906401Y-124492627D01*
X121900000Y-124552155D01*
X116113524Y-124552155D01*
X113943316Y-122381947D01*
X115500000Y-122381947D01*
X115500000Y-122618052D01*
X115536934Y-122851247D01*
X115609897Y-123075802D01*
X115717087Y-123286174D01*
X115777338Y-123369104D01*
X115777340Y-123369105D01*
X116517037Y-122629408D01*
X116534075Y-122692993D01*
X116599901Y-122807007D01*
X116692993Y-122900099D01*
X116807007Y-122965925D01*
X116870590Y-122982962D01*
X116130893Y-123722658D01*
X116213828Y-123782914D01*
X116424197Y-123890102D01*
X116648752Y-123963065D01*
X116648751Y-123963065D01*
X116881948Y-124000000D01*
X117118052Y-124000000D01*
X117351247Y-123963065D01*
X117575802Y-123890102D01*
X117786163Y-123782918D01*
X117786169Y-123782914D01*
X117869104Y-123722658D01*
X117869105Y-123722658D01*
X117129408Y-122982962D01*
X117192993Y-122965925D01*
X117307007Y-122900099D01*
X117400099Y-122807007D01*
X117465925Y-122692993D01*
X117482962Y-122629409D01*
X118222658Y-123369105D01*
X118222658Y-123369104D01*
X118282914Y-123286169D01*
X118282918Y-123286163D01*
X118390102Y-123075802D01*
X118463065Y-122851247D01*
X118500000Y-122618052D01*
X118500000Y-122381947D01*
X118463065Y-122148752D01*
X118390102Y-121924197D01*
X118282914Y-121713828D01*
X118222658Y-121630894D01*
X118222658Y-121630893D01*
X117482962Y-122370590D01*
X117465925Y-122307007D01*
X117400099Y-122192993D01*
X117307007Y-122099901D01*
X117192993Y-122034075D01*
X117129409Y-122017037D01*
X117869105Y-121277340D01*
X117869104Y-121277338D01*
X117786174Y-121217087D01*
X117575802Y-121109897D01*
X117351247Y-121036934D01*
X117351248Y-121036934D01*
X117118052Y-121000000D01*
X116881948Y-121000000D01*
X116648752Y-121036934D01*
X116424197Y-121109897D01*
X116213830Y-121217084D01*
X116130894Y-121277340D01*
X116870591Y-122017037D01*
X116807007Y-122034075D01*
X116692993Y-122099901D01*
X116599901Y-122192993D01*
X116534075Y-122307007D01*
X116517037Y-122370591D01*
X115777340Y-121630894D01*
X115717084Y-121713830D01*
X115609897Y-121924197D01*
X115536934Y-122148752D01*
X115500000Y-122381947D01*
X113943316Y-122381947D01*
X113778418Y-122217049D01*
X113702013Y-122165998D01*
X113676202Y-122148752D01*
X113655495Y-122134916D01*
X113655492Y-122134914D01*
X113655491Y-122134914D01*
X113518917Y-122078343D01*
X113518907Y-122078340D01*
X113373920Y-122049500D01*
X113373918Y-122049500D01*
X110373872Y-122049500D01*
X110306833Y-122029815D01*
X110261078Y-121977011D01*
X110251134Y-121907853D01*
X110280159Y-121844297D01*
X110286191Y-121837819D01*
X110577201Y-121546809D01*
X111819082Y-120304926D01*
X111880403Y-120271443D01*
X111950094Y-120276427D01*
X112006028Y-120318299D01*
X112024692Y-120354292D01*
X112036955Y-120392036D01*
X112036957Y-120392042D01*
X112117386Y-120549890D01*
X112221517Y-120693214D01*
X112346786Y-120818483D01*
X112490110Y-120922614D01*
X112553245Y-120954783D01*
X112647957Y-121003042D01*
X112647960Y-121003043D01*
X112732201Y-121030414D01*
X112816445Y-121057786D01*
X112991421Y-121085500D01*
X112991422Y-121085500D01*
X113168578Y-121085500D01*
X113168579Y-121085500D01*
X113343555Y-121057786D01*
X113512042Y-121003042D01*
X113669890Y-120922614D01*
X113813214Y-120818483D01*
X113938483Y-120693214D01*
X114042614Y-120549890D01*
X114123042Y-120392042D01*
X114177786Y-120223555D01*
X114205500Y-120048579D01*
X114205500Y-119871421D01*
X114177786Y-119696445D01*
X114123042Y-119527958D01*
X114123042Y-119527957D01*
X114042613Y-119370109D01*
X113938483Y-119226786D01*
X113813214Y-119101517D01*
X113669890Y-118997386D01*
X113606732Y-118965205D01*
X113512042Y-118916957D01*
X113512039Y-118916956D01*
X113474292Y-118904692D01*
X113416617Y-118865255D01*
X113389418Y-118800896D01*
X113401333Y-118732050D01*
X113424929Y-118699080D01*
X113987191Y-118136819D01*
X114048514Y-118103334D01*
X114074872Y-118100500D01*
X115545932Y-118100500D01*
X115612971Y-118120185D01*
X115656416Y-118168203D01*
X115716657Y-118286433D01*
X115855483Y-118477510D01*
X116022490Y-118644517D01*
X116213567Y-118783343D01*
X116248017Y-118800896D01*
X116424003Y-118890566D01*
X116424005Y-118890566D01*
X116424008Y-118890568D01*
X116505222Y-118916956D01*
X116648631Y-118963553D01*
X116881903Y-119000500D01*
X116881908Y-119000500D01*
X117118097Y-119000500D01*
X117351368Y-118963553D01*
X117575992Y-118890568D01*
X117786433Y-118783343D01*
X117977510Y-118644517D01*
X118144517Y-118477510D01*
X118283343Y-118286433D01*
X118390568Y-118075992D01*
X118463553Y-117851368D01*
X118468762Y-117818477D01*
X118500500Y-117618097D01*
X118500500Y-117381902D01*
X118463553Y-117148631D01*
X118405304Y-116969360D01*
X118390568Y-116924008D01*
X118390566Y-116924005D01*
X118390566Y-116924003D01*
X118283342Y-116713566D01*
X118269342Y-116694297D01*
X118144517Y-116522490D01*
X117977510Y-116355483D01*
X117786433Y-116216657D01*
X117772308Y-116209460D01*
X117575996Y-116109433D01*
X117351368Y-116036446D01*
X117118097Y-115999500D01*
X117118092Y-115999500D01*
X116881908Y-115999500D01*
X116881903Y-115999500D01*
X116648631Y-116036446D01*
X116424003Y-116109433D01*
X116213566Y-116216657D01*
X116104550Y-116295862D01*
X116022490Y-116355483D01*
X116022488Y-116355485D01*
X116022487Y-116355485D01*
X115855485Y-116522487D01*
X115855485Y-116522488D01*
X115855483Y-116522490D01*
X115798396Y-116601063D01*
X115716657Y-116713566D01*
X115694092Y-116757853D01*
X115658855Y-116827011D01*
X115656417Y-116831795D01*
X115638779Y-116850469D01*
X115624243Y-116871642D01*
X115615187Y-116875448D01*
X115608442Y-116882591D01*
X115583508Y-116888765D01*
X115559833Y-116898718D01*
X115545932Y-116899500D01*
X115349098Y-116899500D01*
X115282059Y-116879815D01*
X115236304Y-116827011D01*
X115226360Y-116757853D01*
X115255385Y-116694297D01*
X115261417Y-116687819D01*
X115270064Y-116679172D01*
X115280520Y-116668716D01*
X115280520Y-116668715D01*
X115290724Y-116658511D01*
X115290727Y-116658506D01*
X118597080Y-113352155D01*
X121900000Y-113352155D01*
X121900000Y-114150000D01*
X122641759Y-114150000D01*
X122628822Y-114181233D01*
X122600000Y-114326131D01*
X122600000Y-114473869D01*
X122628822Y-114618767D01*
X122641759Y-114650000D01*
X121900000Y-114650000D01*
X121900000Y-115447844D01*
X121906401Y-115507372D01*
X121906403Y-115507379D01*
X121956645Y-115642086D01*
X121956649Y-115642093D01*
X122042809Y-115757187D01*
X122042812Y-115757190D01*
X122157906Y-115843350D01*
X122157913Y-115843354D01*
X122292620Y-115893596D01*
X122292627Y-115893598D01*
X122352155Y-115899999D01*
X122352172Y-115900000D01*
X123750000Y-115900000D01*
X123750000Y-115150000D01*
X124250000Y-115150000D01*
X124250000Y-115900000D01*
X125647828Y-115900000D01*
X125647844Y-115899999D01*
X125707372Y-115893598D01*
X125707379Y-115893596D01*
X125842086Y-115843354D01*
X125842093Y-115843350D01*
X125957187Y-115757190D01*
X125957190Y-115757187D01*
X126043350Y-115642093D01*
X126043354Y-115642086D01*
X126093596Y-115507379D01*
X126093598Y-115507372D01*
X126099999Y-115447844D01*
X126100000Y-115447827D01*
X126100000Y-114650000D01*
X125358241Y-114650000D01*
X125371178Y-114618767D01*
X125400000Y-114473869D01*
X125400000Y-114326131D01*
X125371178Y-114181233D01*
X125358241Y-114150000D01*
X126100000Y-114150000D01*
X126100000Y-113352172D01*
X126099999Y-113352155D01*
X126093598Y-113292627D01*
X126093596Y-113292620D01*
X126043354Y-113157913D01*
X126043350Y-113157906D01*
X125957190Y-113042812D01*
X125957187Y-113042809D01*
X125842093Y-112956649D01*
X125842086Y-112956645D01*
X125707379Y-112906403D01*
X125707372Y-112906401D01*
X125647844Y-112900000D01*
X124250000Y-112900000D01*
X124250000Y-113650000D01*
X123750000Y-113650000D01*
X123750000Y-112900000D01*
X122352155Y-112900000D01*
X122292627Y-112906401D01*
X122292620Y-112906403D01*
X122157913Y-112956645D01*
X122157906Y-112956649D01*
X122042812Y-113042809D01*
X122042809Y-113042812D01*
X121956649Y-113157906D01*
X121956645Y-113157913D01*
X121906403Y-113292620D01*
X121906401Y-113292627D01*
X121900000Y-113352155D01*
X118597080Y-113352155D01*
X119514664Y-112434571D01*
X119575985Y-112401088D01*
X119578152Y-112400637D01*
X119578841Y-112400500D01*
X119578842Y-112400500D01*
X119733497Y-112369737D01*
X119879179Y-112309394D01*
X120010289Y-112221789D01*
X120121789Y-112110289D01*
X120209394Y-111979179D01*
X120269737Y-111833497D01*
X120300500Y-111678842D01*
X120300500Y-111521158D01*
X120300500Y-111521155D01*
X120300499Y-111521153D01*
X120287417Y-111455386D01*
X120269737Y-111366503D01*
X120269735Y-111366498D01*
X120209397Y-111220827D01*
X120209390Y-111220814D01*
X120121789Y-111089711D01*
X120121786Y-111089707D01*
X120010292Y-110978213D01*
X120010288Y-110978210D01*
X119879185Y-110890609D01*
X119879172Y-110890602D01*
X119832547Y-110871290D01*
X119807012Y-110850713D01*
X119780731Y-110831039D01*
X119779928Y-110828888D01*
X119778143Y-110827449D01*
X119767782Y-110796321D01*
X119756315Y-110765574D01*
X119756802Y-110763332D01*
X119756078Y-110761155D01*
X119764191Y-110729364D01*
X119771167Y-110697301D01*
X119773000Y-110694851D01*
X119773357Y-110693456D01*
X119792312Y-110669053D01*
X119874549Y-110586816D01*
X119935872Y-110553334D01*
X119962229Y-110550500D01*
X124995396Y-110550500D01*
X125042844Y-110559937D01*
G37*
%TD.AperFunction*%
%TA.AperFunction,Conductor*%
G36*
X102382015Y-128390500D02*
G01*
X102362330Y-128457539D01*
X102309526Y-128503294D01*
X102258015Y-128514500D01*
X102006015Y-128514500D01*
X101938976Y-128494815D01*
X101893221Y-128442011D01*
X101882015Y-128390500D01*
X101882015Y-127947512D01*
X101939022Y-127980425D01*
X102066189Y-128014500D01*
X102197841Y-128014500D01*
X102325008Y-127980425D01*
X102382015Y-127947512D01*
X102382015Y-128390500D01*
G37*
%TD.AperFunction*%
%TA.AperFunction,Conductor*%
G36*
X130455703Y-118578176D02*
G01*
X130462181Y-118584208D01*
X130522490Y-118644517D01*
X130579173Y-118685700D01*
X130579646Y-118686050D01*
X130600370Y-118713437D01*
X130621403Y-118740713D01*
X130621497Y-118741356D01*
X130621807Y-118741765D01*
X130622077Y-118745285D01*
X130626095Y-118772542D01*
X131370590Y-119517037D01*
X131307007Y-119534075D01*
X131192993Y-119599901D01*
X131099901Y-119692993D01*
X131034075Y-119807007D01*
X131017037Y-119870591D01*
X130286819Y-119140373D01*
X130253334Y-119079050D01*
X130250500Y-119052692D01*
X130250500Y-118671889D01*
X130270185Y-118604850D01*
X130322989Y-118559095D01*
X130392147Y-118549151D01*
X130455703Y-118578176D01*
G37*
%TD.AperFunction*%
%TD*%
M02*
