M48
; DRILL file KiCad 10.0.4 date 2026-07-11T13:21:46
; FORMAT={-:-/ absolute / metric / decimal}
; #@! TF.CreationDate,2026-07-11T13:21:46+01:00
; #@! TF.GenerationSoftware,Kicad,Pcbnew,10.0.4
; #@! TF.FileFunction,Plated,1,2,PTH
FMAT,2
METRIC
; #@! TA.AperFunction,Plated,PTH,ViaDrill
T1C0.300
; #@! TA.AperFunction,Plated,PTH,ComponentDrill
T2C1.000
; #@! TA.AperFunction,Plated,PTH,ComponentDrill
T3C1.500
; #@! TA.AperFunction,Plated,PTH,ComponentDrill
T4C3.000
%
G90
G05
T1
X97.7Y-109.7
X97.7Y-113.1
X97.7Y-116.6
X97.7Y-119.8
X97.7Y-123.4
X97.7Y-127.0
X97.8Y-130.2
X101.0Y-115.3
X101.1Y-119.1
X103.4Y-114.8
X104.7Y-125.3
X105.1Y-118.3
X107.1Y-123.5
X111.0Y-116.3
X111.1Y-114.9
X111.9Y-121.3
X115.0Y-119.1
X118.6Y-130.4
X118.8Y-114.8
X119.0Y-119.2
X119.3Y-128.4
X119.5Y-111.6
X119.6Y-109.8
X120.7Y-112.9
X122.2Y-118.4
X123.8Y-130.2
X125.3Y-109.8
X126.6Y-118.9
X127.8Y-116.0
X127.9Y-113.5
X129.8Y-130.1
X130.15Y-109.8
X130.6Y-130.7
X131.1Y-110.6
X132.2Y-127.8
T2
X99.592Y-112.264
X99.592Y-127.514
X102.132Y-112.264
X102.132Y-127.514
X104.672Y-112.264
X104.672Y-127.514
X107.212Y-112.264
X107.212Y-127.514
X109.752Y-112.264
X109.752Y-127.514
X112.292Y-112.264
X112.292Y-127.514
X114.832Y-112.264
X114.832Y-127.514
X117.0Y-117.5
X117.0Y-122.5
X131.5Y-117.5
X131.5Y-120.0
X131.5Y-122.5
T4
X104.19Y-122.5
X110.54Y-125.04
T3
G00X124.65Y-114.4
M15
G01X123.35Y-114.4
M16
G05
G00X124.65Y-125.6
M15
G01X123.35Y-125.6
M16
G05
M30
